# xmcd CD database file
#
# Track frame offsets:
#	150
#	24268
#	48434
#	66940
#	80367
#	95872
#	136313
#	155362
#	175974
#	201802
#	227522
#
# Disc length: 3176 seconds
#
# Revision: 0
# Processed by: cddbd v1.4PL0 Copyright (c) Steve Scherf et al.
# Submitted via: Feurio! 1.66 - http://www.feurio.com
#
DISCID=8b0c660b
DTITLE=Tom Principato - House On Fire
DYEAR=2003
DGENRE=blues
TTITLE0='Till I Get What I Came Here For
TTITLE1=Done Your Daddy Dirty
TTITLE2=Crazy Mixed Up World
TTITLE3=Apricot Brandy
TTITLE4=Voodoo Thing
TTITLE5=Very Blue
TTITLE6=Break Out !
TTITLE7=House On Fire
TTITLE8=Shuffle - 50
TTITLE9=I Hear You Knockin'
TTITLE10=Baptised In Muddy Water
EXTD=
EXTT0=
EXTT1=
EXTT2=
EXTT3=
EXTT4=
EXTT5=
EXTT6=
EXTT7=
EXTT8=
EXTT9=
EXTT10=
PLAYORDER=
